<mxfile host="app.diagrams.net" modified="2024-02-06T16:53:18.990Z" agent="Mozilla/5.0 (Windows NT 10.0; Win64; x64) AppleWebKit/537.36 (KHTML, like Gecko) Chrome/121.0.0.0 Safari/537.36" etag="gWvmHkBgA0PkG1nQ-JDH" version="23.1.1" type="github">
  <diagram name="Page-1" id="_xnZ2V_q1FUdCI5jwh5K">
    <mxGraphModel dx="1134" dy="637" grid="1" gridSize="10" guides="1" tooltips="1" connect="1" arrows="1" fold="1" page="1" pageScale="1" pageWidth="850" pageHeight="1100" math="0" shadow="0">
      <root>
        <mxCell id="0" />
        <mxCell id="1" parent="0" />
        <mxCell id="d5Snx47tdI6rZ0K9v_f_-25" style="rounded=0;orthogonalLoop=1;jettySize=auto;html=1;exitX=0.5;exitY=1;exitDx=0;exitDy=0;entryX=0.5;entryY=0;entryDx=0;entryDy=0;" edge="1" parent="1" source="d5Snx47tdI6rZ0K9v_f_-26" target="d5Snx47tdI6rZ0K9v_f_-32">
          <mxGeometry relative="1" as="geometry" />
        </mxCell>
        <mxCell id="d5Snx47tdI6rZ0K9v_f_-26" value="&lt;font style=&quot;font-size: 29px;&quot;&gt;Eteint&lt;/font&gt;" style="ellipse;whiteSpace=wrap;html=1;aspect=fixed;" vertex="1" parent="1">
          <mxGeometry x="580" y="220" width="140" height="140" as="geometry" />
        </mxCell>
        <mxCell id="d5Snx47tdI6rZ0K9v_f_-27" style="rounded=0;orthogonalLoop=1;jettySize=auto;html=1;exitX=0.5;exitY=0;exitDx=0;exitDy=0;entryX=0.5;entryY=1;entryDx=0;entryDy=0;" edge="1" parent="1" source="d5Snx47tdI6rZ0K9v_f_-29" target="d5Snx47tdI6rZ0K9v_f_-36">
          <mxGeometry relative="1" as="geometry">
            <mxPoint x="340" y="350" as="targetPoint" />
          </mxGeometry>
        </mxCell>
        <mxCell id="d5Snx47tdI6rZ0K9v_f_-28" value="Delai_sig &amp;gt;= G_DELAI_CLIGNOTE" style="edgeLabel;html=1;align=center;verticalAlign=middle;resizable=0;points=[];" vertex="1" connectable="0" parent="d5Snx47tdI6rZ0K9v_f_-27">
          <mxGeometry x="-0.5715" y="-1" relative="1" as="geometry">
            <mxPoint x="13" y="-33" as="offset" />
          </mxGeometry>
        </mxCell>
        <mxCell id="d5Snx47tdI6rZ0K9v_f_-29" value="&lt;font style=&quot;font-size: 29px;&quot;&gt;Clignotant&lt;br&gt;&lt;/font&gt;" style="ellipse;whiteSpace=wrap;html=1;aspect=fixed;" vertex="1" parent="1">
          <mxGeometry x="210" y="450" width="140" height="140" as="geometry" />
        </mxCell>
        <mxCell id="d5Snx47tdI6rZ0K9v_f_-30" style="edgeStyle=orthogonalEdgeStyle;rounded=0;orthogonalLoop=1;jettySize=auto;html=1;exitX=0;exitY=0.5;exitDx=0;exitDy=0;" edge="1" parent="1" source="d5Snx47tdI6rZ0K9v_f_-32" target="d5Snx47tdI6rZ0K9v_f_-29">
          <mxGeometry relative="1" as="geometry" />
        </mxCell>
        <mxCell id="d5Snx47tdI6rZ0K9v_f_-31" value="Delai_sig &amp;gt;= G_DELAI_CONTINU" style="edgeLabel;html=1;align=center;verticalAlign=middle;resizable=0;points=[];" vertex="1" connectable="0" parent="d5Snx47tdI6rZ0K9v_f_-30">
          <mxGeometry x="-0.1611" y="-4" relative="1" as="geometry">
            <mxPoint x="-15" y="4" as="offset" />
          </mxGeometry>
        </mxCell>
        <mxCell id="d5Snx47tdI6rZ0K9v_f_-32" value="&lt;span style=&quot;font-size: 29px;&quot;&gt;Continu&lt;/span&gt;" style="ellipse;whiteSpace=wrap;html=1;aspect=fixed;" vertex="1" parent="1">
          <mxGeometry x="580" y="450" width="140" height="140" as="geometry" />
        </mxCell>
        <mxCell id="d5Snx47tdI6rZ0K9v_f_-33" value="" style="endArrow=classic;html=1;rounded=0;entryX=1;entryY=0;entryDx=0;entryDy=0;" edge="1" parent="1" target="d5Snx47tdI6rZ0K9v_f_-26">
          <mxGeometry width="50" height="50" relative="1" as="geometry">
            <mxPoint x="740" y="180" as="sourcePoint" />
            <mxPoint x="679.1201017596948" y="208.20006359980925" as="targetPoint" />
          </mxGeometry>
        </mxCell>
        <mxCell id="d5Snx47tdI6rZ0K9v_f_-34" value="&lt;font style=&quot;font-size: 21px;&quot;&gt;RST&lt;/font&gt;" style="edgeLabel;html=1;align=center;verticalAlign=middle;resizable=0;points=[];" vertex="1" connectable="0" parent="d5Snx47tdI6rZ0K9v_f_-33">
          <mxGeometry x="0.374" y="-4" relative="1" as="geometry">
            <mxPoint x="22" y="-17" as="offset" />
          </mxGeometry>
        </mxCell>
        <mxCell id="d5Snx47tdI6rZ0K9v_f_-35" style="edgeStyle=orthogonalEdgeStyle;rounded=0;orthogonalLoop=1;jettySize=auto;html=1;exitX=1;exitY=0.5;exitDx=0;exitDy=0;" edge="1" parent="1" source="d5Snx47tdI6rZ0K9v_f_-36" target="d5Snx47tdI6rZ0K9v_f_-26">
          <mxGeometry relative="1" as="geometry" />
        </mxCell>
        <mxCell id="d5Snx47tdI6rZ0K9v_f_-36" value="&lt;font style=&quot;font-size: 29px;&quot;&gt;Done&lt;/font&gt;" style="ellipse;whiteSpace=wrap;html=1;aspect=fixed;" vertex="1" parent="1">
          <mxGeometry x="210" y="220" width="140" height="140" as="geometry" />
        </mxCell>
      </root>
    </mxGraphModel>
  </diagram>
</mxfile>
